<mxfile host="app.diagrams.net" modified="2021-03-28T09:56:31.276Z" agent="5.0 (Windows NT 10.0; Win64; x64) AppleWebKit/537.36 (KHTML, like Gecko) Chrome/89.0.4389.90 Safari/537.36" etag="vlQ7wDJc_FdHKalO8dxM" version="14.5.3" type="github">
  <diagram id="kgpKYQtTHZ0yAKxKKP6v" name="Page-1">
    <mxGraphModel dx="1038" dy="548" grid="1" gridSize="10" guides="1" tooltips="1" connect="1" arrows="1" fold="1" page="1" pageScale="1" pageWidth="850" pageHeight="1100" math="0" shadow="0">
      <root>
        <mxCell id="0" />
        <mxCell id="1" parent="0" />
        <mxCell id="hP4rECzPhaRNZ1tqSJZv-1" value="Teleportkapu lépés" style="shape=umlFrame;whiteSpace=wrap;html=1;width=80;height=30;" parent="1" vertex="1">
          <mxGeometry x="70" y="50" width="650" height="500" as="geometry" />
        </mxCell>
        <mxCell id="hP4rECzPhaRNZ1tqSJZv-30" value="opt" style="shape=umlFrame;whiteSpace=wrap;html=1;" parent="1" vertex="1">
          <mxGeometry x="150" y="180" width="510" height="320" as="geometry" />
        </mxCell>
        <mxCell id="hP4rECzPhaRNZ1tqSJZv-3" value="tp: Telepportkapu" style="shape=umlLifeline;perimeter=lifelinePerimeter;whiteSpace=wrap;html=1;container=1;collapsible=0;recursiveResize=0;outlineConnect=0;" parent="1" vertex="1">
          <mxGeometry x="240" y="80" width="100" height="460" as="geometry" />
        </mxCell>
        <mxCell id="hP4rECzPhaRNZ1tqSJZv-4" value="" style="html=1;points=[];perimeter=orthogonalPerimeter;" parent="hP4rECzPhaRNZ1tqSJZv-3" vertex="1">
          <mxGeometry x="45" y="90" width="10" height="350" as="geometry" />
        </mxCell>
        <mxCell id="hP4rECzPhaRNZ1tqSJZv-26" value="" style="html=1;points=[];perimeter=orthogonalPerimeter;" parent="hP4rECzPhaRNZ1tqSJZv-3" vertex="1">
          <mxGeometry x="55" y="320" width="10" height="80" as="geometry" />
        </mxCell>
        <mxCell id="hP4rECzPhaRNZ1tqSJZv-27" value="4. SetSajatAszteroida(szomszed)" style="edgeStyle=orthogonalEdgeStyle;html=1;align=left;spacingLeft=2;endArrow=block;rounded=0;entryX=1;entryY=0;" parent="hP4rECzPhaRNZ1tqSJZv-3" source="hP4rECzPhaRNZ1tqSJZv-4" target="hP4rECzPhaRNZ1tqSJZv-26" edge="1">
          <mxGeometry relative="1" as="geometry">
            <mxPoint x="60" y="260" as="sourcePoint" />
            <Array as="points">
              <mxPoint x="90" y="300" />
              <mxPoint x="90" y="320" />
            </Array>
          </mxGeometry>
        </mxCell>
        <mxCell id="hP4rECzPhaRNZ1tqSJZv-9" value="1. Lepes()" style="html=1;verticalAlign=bottom;endArrow=block;" parent="1" source="hP4rECzPhaRNZ1tqSJZv-18" target="hP4rECzPhaRNZ1tqSJZv-3" edge="1">
          <mxGeometry width="80" relative="1" as="geometry">
            <mxPoint x="150" y="170" as="sourcePoint" />
            <mxPoint x="240" y="170" as="targetPoint" />
            <Array as="points">
              <mxPoint x="290" y="170" />
            </Array>
          </mxGeometry>
        </mxCell>
        <mxCell id="hP4rECzPhaRNZ1tqSJZv-13" value="" style="html=1;verticalAlign=bottom;endArrow=open;dashed=1;endSize=8;exitX=-0.26;exitY=0.981;exitDx=0;exitDy=0;exitPerimeter=0;" parent="1" source="hP4rECzPhaRNZ1tqSJZv-4" target="hP4rECzPhaRNZ1tqSJZv-18" edge="1">
          <mxGeometry relative="1" as="geometry">
            <mxPoint x="320" y="410" as="sourcePoint" />
            <mxPoint x="160" y="454" as="targetPoint" />
          </mxGeometry>
        </mxCell>
        <mxCell id="hP4rECzPhaRNZ1tqSJZv-14" value="regi : Aszteroida" style="shape=umlLifeline;perimeter=lifelinePerimeter;whiteSpace=wrap;html=1;container=1;collapsible=0;recursiveResize=0;outlineConnect=0;" parent="1" vertex="1">
          <mxGeometry x="400" y="80" width="100" height="450" as="geometry" />
        </mxCell>
        <mxCell id="hP4rECzPhaRNZ1tqSJZv-20" value="" style="html=1;points=[];perimeter=orthogonalPerimeter;" parent="hP4rECzPhaRNZ1tqSJZv-14" vertex="1">
          <mxGeometry x="45" y="220" width="10" height="40" as="geometry" />
        </mxCell>
        <mxCell id="yNZwZQ-9cxuPTYPg39i9-1" value="" style="html=1;points=[];perimeter=orthogonalPerimeter;" vertex="1" parent="hP4rECzPhaRNZ1tqSJZv-14">
          <mxGeometry x="45" y="140" width="10" height="30" as="geometry" />
        </mxCell>
        <mxCell id="hP4rECzPhaRNZ1tqSJZv-18" value="Controller" style="shape=umlLifeline;participant=umlActor;perimeter=lifelinePerimeter;whiteSpace=wrap;html=1;container=1;collapsible=0;recursiveResize=0;verticalAlign=top;spacingTop=36;outlineConnect=0;" parent="1" vertex="1">
          <mxGeometry x="110" y="85" width="20" height="445" as="geometry" />
        </mxCell>
        <mxCell id="hP4rECzPhaRNZ1tqSJZv-19" value="szomszed: Aszteroida" style="shape=umlLifeline;perimeter=lifelinePerimeter;whiteSpace=wrap;html=1;container=1;collapsible=0;recursiveResize=0;outlineConnect=0;" parent="1" vertex="1">
          <mxGeometry x="560" y="80" width="120" height="460" as="geometry" />
        </mxCell>
        <mxCell id="hP4rECzPhaRNZ1tqSJZv-23" value="" style="html=1;points=[];perimeter=orthogonalPerimeter;" parent="hP4rECzPhaRNZ1tqSJZv-19" vertex="1">
          <mxGeometry x="55" y="340" width="10" height="40" as="geometry" />
        </mxCell>
        <mxCell id="hP4rECzPhaRNZ1tqSJZv-21" value="3. RemoveSzomszed(tp)" style="html=1;verticalAlign=bottom;endArrow=block;entryX=0;entryY=0;" parent="1" source="hP4rECzPhaRNZ1tqSJZv-4" target="hP4rECzPhaRNZ1tqSJZv-20" edge="1">
          <mxGeometry relative="1" as="geometry">
            <mxPoint x="380" y="180" as="sourcePoint" />
          </mxGeometry>
        </mxCell>
        <mxCell id="hP4rECzPhaRNZ1tqSJZv-22" value="" style="html=1;verticalAlign=bottom;endArrow=open;dashed=1;endSize=8;exitX=0;exitY=0.95;" parent="1" source="hP4rECzPhaRNZ1tqSJZv-20" target="hP4rECzPhaRNZ1tqSJZv-4" edge="1">
          <mxGeometry relative="1" as="geometry">
            <mxPoint x="380" y="256" as="targetPoint" />
          </mxGeometry>
        </mxCell>
        <mxCell id="hP4rECzPhaRNZ1tqSJZv-24" value="5. AddSzomszed(tp)" style="html=1;verticalAlign=bottom;endArrow=block;entryX=0;entryY=0;" parent="1" source="hP4rECzPhaRNZ1tqSJZv-26" target="hP4rECzPhaRNZ1tqSJZv-23" edge="1">
          <mxGeometry relative="1" as="geometry">
            <mxPoint x="275" y="260.0000000000001" as="sourcePoint" />
          </mxGeometry>
        </mxCell>
        <mxCell id="hP4rECzPhaRNZ1tqSJZv-25" value="" style="html=1;verticalAlign=bottom;endArrow=open;dashed=1;endSize=8;exitX=0;exitY=0.95;" parent="1" source="hP4rECzPhaRNZ1tqSJZv-23" target="hP4rECzPhaRNZ1tqSJZv-26" edge="1">
          <mxGeometry relative="1" as="geometry">
            <mxPoint x="275" y="336" as="targetPoint" />
          </mxGeometry>
        </mxCell>
        <mxCell id="hP4rECzPhaRNZ1tqSJZv-31" value="[megkergultE == true]" style="text;html=1;strokeColor=none;fillColor=none;align=center;verticalAlign=middle;whiteSpace=wrap;rounded=0;" parent="1" vertex="1">
          <mxGeometry x="160" y="220" width="120" height="20" as="geometry" />
        </mxCell>
        <mxCell id="yNZwZQ-9cxuPTYPg39i9-2" value="2. GetSzomszedok()" style="html=1;verticalAlign=bottom;endArrow=block;entryX=0;entryY=0;" edge="1" target="yNZwZQ-9cxuPTYPg39i9-1" parent="1" source="hP4rECzPhaRNZ1tqSJZv-4">
          <mxGeometry relative="1" as="geometry">
            <mxPoint x="375" y="270" as="sourcePoint" />
          </mxGeometry>
        </mxCell>
        <mxCell id="yNZwZQ-9cxuPTYPg39i9-3" value="" style="html=1;verticalAlign=bottom;endArrow=open;dashed=1;endSize=8;exitX=0;exitY=0.95;" edge="1" source="yNZwZQ-9cxuPTYPg39i9-1" parent="1" target="hP4rECzPhaRNZ1tqSJZv-4">
          <mxGeometry relative="1" as="geometry">
            <mxPoint x="375" y="346" as="targetPoint" />
          </mxGeometry>
        </mxCell>
        <mxCell id="yNZwZQ-9cxuPTYPg39i9-4" value="szomszedok" style="edgeLabel;html=1;align=center;verticalAlign=middle;resizable=0;points=[];" vertex="1" connectable="0" parent="yNZwZQ-9cxuPTYPg39i9-3">
          <mxGeometry x="0.176" y="-3" relative="1" as="geometry">
            <mxPoint as="offset" />
          </mxGeometry>
        </mxCell>
      </root>
    </mxGraphModel>
  </diagram>
</mxfile>
